<svg xmlns="http://www.w3.org/2000/svg" viewBox="0 0 32 32">
  <!-- Background -->
  <rect width="32" height="32" rx="5" fill="#1a2e10"/>

  <!-- Mushroom cap -->
  <rect x="11" y="3"  width="10" height="3" fill="#b83030"/>
  <rect x="7"  y="6"  width="18" height="4" fill="#c03535"/>
  <rect x="4"  y="10" width="24" height="6" fill="#c03535"/>

  <!-- Underside / gills -->
  <rect x="4"  y="16" width="24" height="2" fill="#e8d8a8"/>

  <!-- Stem -->
  <rect x="12" y="18" width="8"  height="7" fill="#e8d8a8"/>

  <!-- Stem base -->
  <rect x="10" y="25" width="12" height="3" fill="#c9b87a"/>

  <!--
    Pixel "R" — 3×5 grid, each pixel = 2×2 SVG units, origin x=9 y=6
    # # .
    # . #
    # # .
    # . #
    # . #
  -->
  <rect x="9"  y="6"  width="2" height="2" fill="white"/>
  <rect x="11" y="6"  width="2" height="2" fill="white"/>
  <rect x="9"  y="8"  width="2" height="2" fill="white"/>
  <rect x="13" y="8"  width="2" height="2" fill="white"/>
  <rect x="9"  y="10" width="2" height="2" fill="white"/>
  <rect x="11" y="10" width="2" height="2" fill="white"/>
  <rect x="9"  y="12" width="2" height="2" fill="white"/>
  <rect x="13" y="12" width="2" height="2" fill="white"/>
  <rect x="9"  y="14" width="2" height="2" fill="white"/>
  <rect x="13" y="14" width="2" height="2" fill="white"/>

  <!--
    Pixel "C" — 3×5 grid, each pixel = 2×2 SVG units, origin x=17 y=6
    . # #
    # . .
    # . .
    # . .
    . # #
  -->
  <rect x="19" y="6"  width="2" height="2" fill="white"/>
  <rect x="21" y="6"  width="2" height="2" fill="white"/>
  <rect x="17" y="8"  width="2" height="2" fill="white"/>
  <rect x="17" y="10" width="2" height="2" fill="white"/>
  <rect x="17" y="12" width="2" height="2" fill="white"/>
  <rect x="19" y="14" width="2" height="2" fill="white"/>
  <rect x="21" y="14" width="2" height="2" fill="white"/>
</svg>
